<?xml version="1.0" standalone="no"?>
<!DOCTYPE svg PUBLIC "-//W3C//DTD SVG 20010904//EN"
 "http://www.w3.org/TR/2001/REC-SVG-20010904/DTD/svg10.dtd">
<svg version="1.0" xmlns="http://www.w3.org/2000/svg"
 width="1380.000000pt" height="844.000000pt" viewBox="0 0 1380.000000 844.000000"
 preserveAspectRatio="xMidYMid meet">

<g transform="translate(0.000000,844.000000) scale(0.100000,-0.100000)"
fill="#000000" stroke="none">
<path d="M1610 5396 c0 -9 -16 -17 -42 -21 -233 -36 -461 -216 -572 -451 -21
-43 -41 -86 -46 -95 -17 -32 -60 -227 -68 -304 -5 -54 -12 -79 -20 -78 -9 2
-12 -21 -12 -82 0 -65 3 -85 14 -85 9 0 15 -23 19 -83 6 -77 45 -255 66 -302
100 -226 207 -348 386 -442 119 -63 199 -78 400 -78 157 0 192 3 270 24 210
55 374 184 475 376 31 60 73 175 89 245 l9 40 -73 0 -73 0 -21 -70 c-43 -140
-137 -283 -235 -359 -107 -83 -227 -121 -402 -128 -176 -8 -299 24 -425 108
-192 129 -306 355 -326 647 l-6 92 786 0 787 0 1 78 c2 210 -26 351 -101 508
-96 199 -253 343 -442 408 -40 14 -90 27 -110 31 -24 4 -38 11 -38 20 0 13
-25 15 -145 15 -118 0 -145 -3 -145 -14z m315 -156 c132 -34 269 -124 352
-234 47 -62 115 -197 127 -251 4 -16 11 -48 17 -70 13 -52 28 -188 22 -197 -6
-11 -1410 -10 -1417 0 -7 12 22 169 46 247 65 208 192 366 362 452 143 72 332
93 491 53z"/>
<path d="M5340 5395 c0 -9 -14 -17 -37 -20 -188 -32 -401 -193 -488 -368 -21
-42 -42 -74 -46 -71 -5 3 -9 97 -9 210 l0 204 -70 0 -70 0 0 -1330 0 -1330 70
0 70 0 0 540 c0 473 2 540 15 540 8 0 15 -7 15 -14 0 -32 71 -134 137 -198
135 -129 308 -188 556 -188 211 1 355 40 498 138 180 122 285 295 346 569 25
113 25 466 0 578 -36 161 -101 316 -171 410 -120 161 -312 282 -493 310 -27 4
-43 12 -43 21 0 11 -26 14 -140 14 -116 0 -140 -3 -140 -15z m302 -150 c228
-48 412 -221 498 -468 78 -226 90 -432 39 -677 -78 -378 -337 -599 -699 -600
-303 0 -506 123 -627 380 -58 123 -83 272 -83 489 0 348 81 574 264 737 63 56
190 120 276 138 88 19 243 19 332 1z"/>
<path d="M8337 5396 c-3 -8 -23 -18 -44 -21 -21 -3 -71 -17 -111 -31 -292
-100 -486 -354 -564 -739 -17 -89 -14 -422 6 -510 8 -38 18 -83 21 -100 4 -16
10 -39 15 -50 4 -11 20 -51 35 -89 96 -235 300 -409 549 -466 84 -20 115 -22
253 -17 116 3 179 10 236 25 205 56 355 170 457 348 43 75 93 206 106 277 l6
38 -72 -3 -73 -3 -14 -50 c-40 -142 -140 -297 -240 -372 -21 -15 -40 -31 -43
-34 -12 -13 -120 -60 -175 -75 -81 -22 -279 -30 -358 -14 -257 51 -437 214
-524 475 -29 84 -63 277 -63 352 0 11 139 13 788 15 l787 3 -1 145 c-1 121 -6
161 -27 242 -28 107 -87 240 -138 315 -114 166 -304 290 -486 318 -27 4 -43
12 -43 21 0 21 -275 21 -283 0z m293 -150 c113 -28 215 -81 301 -158 41 -36
124 -150 152 -209 47 -98 81 -231 89 -349 l3 -45 -710 0 -710 0 3 55 c4 66 33
181 68 270 88 222 274 386 497 434 81 18 237 19 307 2z"/>
<path d="M10205 5395 c-6 -8 -40 -19 -78 -25 -225 -35 -405 -164 -451 -324
-21 -71 -21 -240 -1 -310 22 -76 65 -138 132 -191 71 -56 184 -113 268 -135
17 -5 56 -15 88 -24 32 -9 95 -23 140 -31 121 -21 185 -34 231 -46 239 -61
369 -137 423 -247 25 -51 28 -67 28 -157 0 -79 -5 -109 -21 -145 -38 -83 -139
-168 -246 -208 -143 -53 -389 -68 -533 -32 -238 60 -401 226 -448 455 l-14 70
-63 3 c-35 2 -67 -1 -71 -5 -11 -11 9 -147 33 -218 56 -166 185 -307 353 -384
27 -13 99 -34 160 -48 101 -23 124 -25 280 -20 182 5 273 21 384 65 133 52
249 153 300 262 24 52 26 64 26 205 0 147 -1 151 -31 215 -65 136 -166 215
-349 275 -36 12 -115 30 -370 86 -422 93 -546 172 -573 364 -27 201 126 358
393 401 189 31 390 6 515 -63 127 -71 205 -193 219 -343 l6 -65 73 -3 72 -3 0
33 c-1 52 -26 179 -45 228 -75 186 -251 313 -477 345 -32 4 -48 11 -48 21 0
21 -290 21 -305 -1z"/>
<path d="M12020 5396 c0 -10 -16 -17 -47 -21 -157 -22 -289 -81 -375 -167 -94
-94 -118 -157 -118 -311 0 -183 40 -270 165 -365 66 -49 179 -104 255 -124 19
-5 51 -14 70 -19 42 -12 138 -32 235 -49 314 -55 504 -146 570 -275 27 -54 30
-67 30 -159 0 -86 -3 -108 -24 -147 -86 -170 -289 -259 -586 -259 -211 0 -364
59 -487 188 -96 100 -141 196 -160 337 -3 17 -12 20 -67 23 -35 2 -68 -1 -72
-5 -9 -9 5 -123 22 -188 25 -90 80 -188 142 -252 157 -165 340 -233 622 -233
337 0 568 92 689 274 19 29 41 74 48 100 7 25 16 46 20 46 4 0 8 52 8 115 0
63 -4 115 -8 115 -5 0 -14 22 -21 50 -16 63 -75 155 -130 202 -86 73 -197 119
-396 163 -66 14 -160 35 -210 46 -49 11 -112 25 -140 31 -136 30 -274 89 -334
143 -56 51 -82 96 -97 171 -15 71 -6 140 26 204 39 77 149 160 255 193 171 54
422 47 569 -15 170 -72 275 -221 276 -390 l0 -48 75 0 75 0 0 33 c0 44 -24
161 -45 222 -64 182 -249 318 -477 350 -32 4 -48 11 -48 21 0 12 -27 14 -155
14 -128 0 -155 -2 -155 -14z"/>
<path d="M7465 5350 c-146 -15 -270 -59 -385 -135 -87 -58 -183 -163 -212
-232 -12 -29 -25 -50 -30 -47 -4 3 -8 97 -8 210 l0 204 -75 0 -75 0 0 -970 0
-970 75 0 75 0 0 568 c0 560 3 619 35 742 44 169 214 364 386 443 61 28 169
49 257 51 l83 1 -3 70 c-3 81 3 77 -123 65z"/>
<path d="M2727 5338 c6 -7 41 -53 79 -103 37 -49 109 -142 159 -206 49 -64
122 -158 160 -209 94 -124 228 -296 265 -342 16 -20 30 -42 30 -48 0 -9 -143
-205 -271 -370 -48 -63 -465 -625 -473 -637 -5 -10 13 -13 83 -13 l89 0 144
193 c79 105 230 308 336 450 106 141 196 257 200 257 6 -1 45 -53 232 -315 25
-35 55 -76 67 -91 22 -29 133 -182 281 -386 l77 -108 98 0 c76 0 96 3 91 13
-5 6 -75 102 -158 212 -82 110 -235 315 -340 455 -105 140 -193 257 -196 260
-16 15 -50 70 -50 82 0 7 16 33 36 58 20 25 68 88 107 140 39 52 74 97 77 100
5 5 69 89 239 315 42 55 78 102 81 105 3 3 38 49 78 103 l72 97 -93 0 -92 0
-300 -399 c-165 -220 -304 -399 -310 -397 -9 2 -395 511 -535 705 l-65 90
-104 1 c-81 0 -101 -3 -94 -12z"/>
</g>
</svg>
